<svg width="1360" height="688" viewBox="0 0 1360 688" fill="none" xmlns="http://www.w3.org/2000/svg">
<mask id="mask0_1132_523" style="mask-type:alpha" maskUnits="userSpaceOnUse" x="0" y="0" width="1360" height="688">
<path d="M0 15C0 6.71572 6.71573 0 15 0H1345C1353.28 0 1360 6.71573 1360 15V688H0V15Z" fill="#373F66"/>
</mask>
<g mask="url(#mask0_1132_523)">
<path d="M0 15C0 6.71574 6.71573 0 15 0H1345C1353.28 0 1360 6.71573 1360 15V711H0V15Z" fill="#373F66"/>
<g style="mix-blend-mode:luminosity" opacity="0.1">
<rect x="680" y="85" width="85" height="85" rx="42.5" transform="rotate(-180 680 85)" fill="#93CCC4"/>
<rect x="1360" y="85" width="85" height="85" rx="42.5" transform="rotate(-180 1360 85)" fill="#93CCC4"/>
<rect x="340" y="85" width="85" height="85" rx="42.5" transform="rotate(-180 340 85)" fill="#93CCC4"/>
<rect x="1020" y="85" width="85" height="85" rx="42.5" transform="rotate(-180 1020 85)" fill="#93CCC4"/>
<path d="M680 85C680 131.944 641.944 170 595 170L595 85L680 85Z" fill="#62A99E"/>
<path d="M1360 85C1360 131.944 1321.94 170 1275 170L1275 85L1360 85Z" fill="#62A99E"/>
<path d="M340 85C340 131.944 301.944 170 255 170V170L255 85L340 85V85Z" fill="#62A99E"/>
<path d="M1020 85C1020 131.944 981.944 170 935 170L935 85L1020 85Z" fill="#62A99E"/>
<path d="M510 170C510 216.944 471.944 255 425 255L425 170L510 170Z" fill="#62A99E"/>
<path d="M1190 170C1190 216.944 1151.94 255 1105 255L1105 170L1190 170Z" fill="#62A99E"/>
<path d="M171 170C171 216.944 132.944 255 86 255V255L86 170L171 170V170Z" fill="#62A99E"/>
<path d="M850 170C850 216.944 811.944 255 765 255L765 170L850 170Z" fill="#62A99E"/>
<path d="M425 85C425 131.944 386.944 170 340 170L340 85L425 85Z" fill="#62A99E"/>
<path d="M1105 85C1105 131.944 1066.94 170 1020 170L1020 85L1105 85Z" fill="#62A99E"/>
<path d="M85 85C85 131.944 46.9442 170 0 170L7.43009e-06 85L85 85Z" fill="#62A99E"/>
<path d="M765 85C765 131.944 726.944 170 680 170L680 85L765 85Z" fill="#62A99E"/>
<path d="M425 0C471.944 8.20892e-06 510 38.0558 510 85L425 85L425 0Z" fill="#62A99E"/>
<path d="M1105 0C1151.94 8.20892e-06 1190 38.0558 1190 85L1105 85L1105 0Z" fill="#62A99E"/>
<path d="M85 0C131.944 8.20892e-06 170 38.0558 170 85L85 85L85 0Z" fill="#62A99E"/>
<path d="M765 0C811.944 8.20892e-06 850 38.0558 850 85L765 85L765 0Z" fill="#62A99E"/>
<path d="M510 170L510 85C556.944 85 595 123.056 595 170L510 170Z" fill="#759B95"/>
<path d="M1190 170L1190 85C1236.94 85 1275 123.056 1275 170L1190 170Z" fill="#759B95"/>
<path d="M170 170L170 85V85C216.944 85 255 123.056 255 170V170L170 170Z" fill="#759B95"/>
<path d="M850 170L850 85C896.944 85 935 123.056 935 170L850 170Z" fill="#759B95"/>
<path d="M510 85L510 170C463.056 170 425 131.944 425 85L510 85Z" fill="#759B95"/>
<path d="M1190 85L1190 170C1143.06 170 1105 131.944 1105 85L1190 85Z" fill="#759B95"/>
<path d="M170 85L170 170V170C123.056 170 85 131.944 85 85V85L170 85Z" fill="#759B95"/>
<path d="M850 85L850 170C803.056 170 765 131.944 765 85L850 85Z" fill="#759B95"/>
<path d="M510 85C510 38.0558 548.056 3.32732e-06 595 7.43178e-06L595 85L510 85Z" fill="#95B6B1"/>
<path d="M1190 85C1190 38.0558 1228.06 3.32732e-06 1275 7.43178e-06L1275 85L1190 85Z" fill="#95B6B1"/>
<path d="M170 85C170 38.0558 208.056 3.32732e-06 255 7.43178e-06L255 85L170 85Z" fill="#95B6B1"/>
<path d="M850 85C850 38.0558 888.056 3.32732e-06 935 7.43178e-06L935 85L850 85Z" fill="#95B6B1"/>
<path d="M340 170C386.944 170 425 208.056 425 255L340 255L340 170Z" fill="#95B6B1"/>
<path d="M1020 170C1066.94 170 1105 208.056 1105 255L1020 255L1020 170Z" fill="#95B6B1"/>
<path d="M0 170C46.9442 170 85 208.056 85 255L-7.43055e-06 255L0 170Z" fill="#95B6B1"/>
<path d="M680 170C726.944 170 765 208.056 765 255L680 255L680 170Z" fill="#95B6B1"/>
</g>
<g style="mix-blend-mode:luminosity" opacity="0.1">
<rect x="680" y="340" width="85" height="85" rx="42.5" transform="rotate(-180 680 340)" fill="#93CCC4"/>
<rect x="1360" y="340" width="85" height="85" rx="42.5" transform="rotate(-180 1360 340)" fill="#93CCC4"/>
<rect x="340" y="340" width="85" height="85" rx="42.5" transform="rotate(-180 340 340)" fill="#93CCC4"/>
<rect x="1020" y="340" width="85" height="85" rx="42.5" transform="rotate(-180 1020 340)" fill="#93CCC4"/>
<path d="M680 340C680 386.944 641.944 425 595 425L595 340L680 340Z" fill="#62A99E"/>
<path d="M1360 340C1360 386.944 1321.94 425 1275 425L1275 340L1360 340Z" fill="#62A99E"/>
<path d="M340 340C340 386.944 301.944 425 255 425L255 340L340 340Z" fill="#62A99E"/>
<path d="M1020 340C1020 386.944 981.944 425 935 425L935 340L1020 340Z" fill="#62A99E"/>
<path d="M510 425C510 471.944 471.944 510 425 510L425 425L510 425Z" fill="#62A99E"/>
<path d="M1190 425C1190 471.944 1151.94 510 1105 510L1105 425L1190 425Z" fill="#62A99E"/>
<path d="M171 425C171 471.944 132.944 510 86 510L86 425L171 425Z" fill="#62A99E"/>
<path d="M850 425C850 471.944 811.944 510 765 510L765 425L850 425Z" fill="#62A99E"/>
<path d="M425 340C425 386.944 386.944 425 340 425L340 340L425 340Z" fill="#62A99E"/>
<path d="M1105 340C1105 386.944 1066.94 425 1020 425L1020 340L1105 340Z" fill="#62A99E"/>
<path d="M85 340C85 386.944 46.9442 425 0 425L7.43009e-06 340L85 340Z" fill="#62A99E"/>
<path d="M765 340C765 386.944 726.944 425 680 425L680 340L765 340Z" fill="#62A99E"/>
<path d="M425 255C471.944 255 510 293.056 510 340L425 340L425 255Z" fill="#62A99E"/>
<path d="M1105 255C1151.94 255 1190 293.056 1190 340L1105 340L1105 255Z" fill="#62A99E"/>
<path d="M85 255V255C131.944 255 170 293.056 170 340V340L85 340L85 255Z" fill="#62A99E"/>
<path d="M765 255C811.944 255 850 293.056 850 340L765 340L765 255Z" fill="#62A99E"/>
<path d="M510 425L510 340C556.944 340 595 378.056 595 425L510 425Z" fill="#759B95"/>
<path d="M1190 425L1190 340C1236.94 340 1275 378.056 1275 425L1190 425Z" fill="#759B95"/>
<path d="M170 425L170 340C216.944 340 255 378.056 255 425L170 425Z" fill="#759B95"/>
<path d="M850 425L850 340C896.944 340 935 378.056 935 425L850 425Z" fill="#759B95"/>
<path d="M510 340L510 425C463.056 425 425 386.944 425 340L510 340Z" fill="#759B95"/>
<path d="M1190 340L1190 425C1143.06 425 1105 386.944 1105 340L1190 340Z" fill="#759B95"/>
<path d="M170 340L170 425C123.056 425 85 386.944 85 340L170 340Z" fill="#759B95"/>
<path d="M850 340L850 425C803.056 425 765 386.944 765 340L850 340Z" fill="#759B95"/>
<path d="M510 340C510 293.056 548.056 255 595 255L595 340L510 340Z" fill="#95B6B1"/>
<path d="M1190 340C1190 293.056 1228.06 255 1275 255L1275 340L1190 340Z" fill="#95B6B1"/>
<path d="M170 340C170 293.056 208.056 255 255 255V255L255 340L170 340V340Z" fill="#95B6B1"/>
<path d="M850 340C850 293.056 888.056 255 935 255L935 340L850 340Z" fill="#95B6B1"/>
<path d="M340 425C386.944 425 425 463.056 425 510L340 510L340 425Z" fill="#95B6B1"/>
<path d="M1020 425C1066.94 425 1105 463.056 1105 510L1020 510L1020 425Z" fill="#95B6B1"/>
<path d="M0 425C46.9442 425 85 463.056 85 510L-7.43055e-06 510L0 425Z" fill="#95B6B1"/>
<path d="M680 425C726.944 425 765 463.056 765 510L680 510L680 425Z" fill="#95B6B1"/>
</g>
<g style="mix-blend-mode:luminosity" opacity="0.1">
<rect x="680" y="595" width="85" height="85" rx="42.5" transform="rotate(-180 680 595)" fill="#93CCC4"/>
<rect x="1360" y="595" width="85" height="85" rx="42.5" transform="rotate(-180 1360 595)" fill="#93CCC4"/>
<rect x="340" y="595" width="85" height="85" rx="42.5" transform="rotate(-180 340 595)" fill="#93CCC4"/>
<rect x="1020" y="595" width="85" height="85" rx="42.5" transform="rotate(-180 1020 595)" fill="#93CCC4"/>
<path d="M680 595C680 641.944 641.944 680 595 680L595 595L680 595Z" fill="#62A99E"/>
<path d="M1360 595C1360 641.944 1321.94 680 1275 680L1275 595L1360 595Z" fill="#62A99E"/>
<path d="M340 595C340 641.944 301.944 680 255 680L255 595L340 595Z" fill="#62A99E"/>
<path d="M1020 595C1020 641.944 981.944 680 935 680L935 595L1020 595Z" fill="#62A99E"/>
<path d="M510 680C510 726.944 471.944 765 425 765L425 680L510 680Z" fill="#62A99E"/>
<path d="M1190 680C1190 726.944 1151.94 765 1105 765L1105 680L1190 680Z" fill="#62A99E"/>
<path d="M171 680C171 726.944 132.944 765 86 765L86 680L171 680Z" fill="#62A99E"/>
<path d="M850 680C850 726.944 811.944 765 765 765L765 680L850 680Z" fill="#62A99E"/>
<path d="M425 595C425 641.944 386.944 680 340 680L340 595L425 595Z" fill="#62A99E"/>
<path d="M1105 595C1105 641.944 1066.94 680 1020 680L1020 595L1105 595Z" fill="#62A99E"/>
<path d="M85 595C85 641.944 46.9442 680 0 680L7.43009e-06 595L85 595Z" fill="#62A99E"/>
<path d="M765 595C765 641.944 726.944 680 680 680L680 595L765 595Z" fill="#62A99E"/>
<path d="M425 510C471.944 510 510 548.056 510 595L425 595L425 510Z" fill="#62A99E"/>
<path d="M1105 510C1151.94 510 1190 548.056 1190 595L1105 595L1105 510Z" fill="#62A99E"/>
<path d="M85 510C131.944 510 170 548.056 170 595L85 595L85 510Z" fill="#62A99E"/>
<path d="M765 510C811.944 510 850 548.056 850 595L765 595L765 510Z" fill="#62A99E"/>
<path d="M510 680L510 595C556.944 595 595 633.056 595 680L510 680Z" fill="#759B95"/>
<path d="M1190 680L1190 595C1236.94 595 1275 633.056 1275 680L1190 680Z" fill="#759B95"/>
<path d="M170 680L170 595C216.944 595 255 633.056 255 680L170 680Z" fill="#759B95"/>
<path d="M850 680L850 595C896.944 595 935 633.056 935 680L850 680Z" fill="#759B95"/>
<path d="M510 595L510 680C463.056 680 425 641.944 425 595L510 595Z" fill="#759B95"/>
<path d="M1190 595L1190 680C1143.06 680 1105 641.944 1105 595L1190 595Z" fill="#759B95"/>
<path d="M170 595L170 680C123.056 680 85 641.944 85 595L170 595Z" fill="#759B95"/>
<path d="M850 595L850 680C803.056 680 765 641.944 765 595L850 595Z" fill="#759B95"/>
<path d="M510 595C510 548.056 548.056 510 595 510L595 595L510 595Z" fill="#95B6B1"/>
<path d="M1190 595C1190 548.056 1228.06 510 1275 510L1275 595L1190 595Z" fill="#95B6B1"/>
<path d="M170 595C170 548.056 208.056 510 255 510L255 595L170 595Z" fill="#95B6B1"/>
<path d="M850 595C850 548.056 888.056 510 935 510L935 595L850 595Z" fill="#95B6B1"/>
<path d="M340 680C386.944 680 425 718.056 425 765L340 765L340 680Z" fill="#95B6B1"/>
<path d="M1020 680C1066.94 680 1105 718.056 1105 765L1020 765L1020 680Z" fill="#95B6B1"/>
<path d="M0 680C46.9442 680 85 718.056 85 765L-7.43055e-06 765L0 680Z" fill="#95B6B1"/>
<path d="M680 680C726.944 680 765 718.056 765 765L680 765L680 680Z" fill="#95B6B1"/>
</g>
</g>
</svg>
