<svg width="13" height="13" viewBox="0 0 13 13" fill="none" xmlns="http://www.w3.org/2000/svg">
<path d="M6.42652 12.7367C8.09572 12.7367 9.69655 12.0996 10.8769 10.9656C12.0572 9.83156 12.7202 8.29348 12.7202 6.68971C12.7202 5.08594 12.0572 3.54786 10.8769 2.41383C9.69655 1.27979 8.09572 0.6427 6.42652 0.6427C4.75733 0.6427 3.1565 1.27979 1.9762 2.41383C0.795898 3.54786 0.132813 5.08594 0.132812 6.68971C0.132813 8.29348 0.795898 9.83156 1.9762 10.9656C3.1565 12.0996 4.75733 12.7367 6.42652 12.7367ZM7.15817 5.62241L6.37145 9.17881C6.31638 9.43581 6.39427 9.58169 6.61062 9.58169C6.76324 9.58169 6.99375 9.52878 7.1503 9.39575L7.08107 9.71019C6.85528 9.97172 6.35729 10.1622 5.92853 10.1622C5.37547 10.1622 5.14025 9.84322 5.29287 9.1652L5.87346 6.54383C5.92381 6.32235 5.87819 6.24223 5.64768 6.18856L5.29287 6.12734L5.35738 5.83935L7.15896 5.62241H7.15817ZM6.42652 4.80002C6.21788 4.80002 6.01777 4.72038 5.87023 4.57863C5.7227 4.43687 5.63981 4.24461 5.63981 4.04414C5.63981 3.84367 5.7227 3.65141 5.87023 3.50966C6.01777 3.3679 6.21788 3.28827 6.42652 3.28827C6.63517 3.28827 6.83528 3.3679 6.98282 3.50966C7.13035 3.65141 7.21324 3.84367 7.21324 4.04414C7.21324 4.24461 7.13035 4.43687 6.98282 4.57863C6.83528 4.72038 6.63517 4.80002 6.42652 4.80002Z" fill="#6CBDB1"/>
</svg>
