<svg width="18" height="18" viewBox="0 0 18 18" fill="none" xmlns="http://www.w3.org/2000/svg">
<path d="M13 1H5C2.79086 1 1 2.79086 1 5V13C1 15.2091 2.79086 17 5 17H13C15.2091 17 17 15.2091 17 13V5C17 2.79086 15.2091 1 13 1Z" fill="white" stroke="#4AC0B1" stroke-width="1.5" stroke-linecap="round" stroke-linejoin="round"/>
<path d="M11.9675 8.55995C12.0601 9.18413 11.9535 9.82161 11.6629 10.3817C11.3722 10.9418 10.9124 11.396 10.3488 11.6797C9.78513 11.9634 9.14639 12.0621 8.52339 11.9619C7.9004 11.8616 7.32487 11.5675 6.87868 11.1213C6.43249 10.6751 6.13835 10.0996 6.0381 9.47661C5.93786 8.85361 6.0366 8.21487 6.3203 7.65123C6.60399 7.08759 7.05819 6.62776 7.61829 6.33713C8.17839 6.04651 8.81587 5.93989 9.44005 6.03245C10.0767 6.12687 10.6662 6.42355 11.1213 6.87868C11.5765 7.33381 11.8731 7.92326 11.9675 8.55995Z" stroke="#4AC0B1" stroke-width="1.5" stroke-linecap="round" stroke-linejoin="round"/>
<path d="M12.0108 4.85332C11.98 5.06138 12.0155 5.27387 12.1124 5.46057C12.2093 5.64727 12.3625 5.79867 12.5504 5.89323C12.7383 5.9878 12.9512 6.02071 13.1589 5.9873C13.3665 5.95388 13.5584 5.85584 13.7071 5.70711C13.8558 5.55838 13.9539 5.36653 13.9873 5.15887C14.0207 4.9512 13.9878 4.73829 13.8932 4.55041C13.7987 4.36253 13.6473 4.20925 13.4606 4.11238C13.2739 4.0155 13.0614 3.97996 12.8533 4.01082C12.6411 4.04229 12.4446 4.14118 12.2929 4.29289C12.1412 4.4446 12.0423 4.64109 12.0108 4.85332Z" fill="#4AC0B1"/>
</svg>
