<svg width="14" height="8" viewBox="0 0 14 8" fill="none" xmlns="http://www.w3.org/2000/svg">
<path d="M1 3.25C0.585786 3.25 0.25 3.58579 0.25 4C0.25 4.41421 0.585787 4.75 1 4.75L1 3.25ZM12 4.75C12.4142 4.75 12.75 4.41421 12.75 4C12.75 3.58579 12.4142 3.25 12 3.25L12 4.75ZM1 4.75L12 4.75L12 3.25L1 3.25L1 4.75Z" fill="#373F66"/>
<path d="M10.5303 0.46967C10.2374 0.176777 9.76256 0.176777 9.46967 0.46967C9.17678 0.762563 9.17678 1.23744 9.46967 1.53033L10.5303 0.46967ZM13 4L13.5303 4.53033C13.8232 4.23744 13.8232 3.76256 13.5303 3.46967L13 4ZM9.46967 6.46967C9.17678 6.76256 9.17678 7.23744 9.46967 7.53033C9.76256 7.82322 10.2374 7.82322 10.5303 7.53033L9.46967 6.46967ZM9.46967 1.53033L12.4697 4.53033L13.5303 3.46967L10.5303 0.46967L9.46967 1.53033ZM12.4697 3.46967L9.46967 6.46967L10.5303 7.53033L13.5303 4.53033L12.4697 3.46967Z" fill="#373F66"/>
</svg>
