<svg width="21" height="22" viewBox="0 0 21 22" fill="none" xmlns="http://www.w3.org/2000/svg">
<path d="M17 7C18.6569 7 20 5.65685 20 4C20 2.34315 18.6569 1 17 1C15.3431 1 14 2.34315 14 4C14 5.65685 15.3431 7 17 7Z" stroke="#373F66" stroke-width="2" stroke-linecap="round" stroke-linejoin="round"/>
<path d="M4 14C5.65685 14 7 12.6569 7 11C7 9.34315 5.65685 8 4 8C2.34315 8 1 9.34315 1 11C1 12.6569 2.34315 14 4 14Z" stroke="#373F66" stroke-width="2" stroke-linecap="round" stroke-linejoin="round"/>
<path d="M17 21C18.6569 21 20 19.6569 20 18C20 16.3431 18.6569 15 17 15C15.3431 15 14 16.3431 14 18C14 19.6569 15.3431 21 17 21Z" stroke="#373F66" stroke-width="2" stroke-linecap="round" stroke-linejoin="round"/>
<path d="M7 13L14 17" stroke="#373F66" stroke-width="2" stroke-linecap="round" stroke-linejoin="round"/>
<path d="M14 5L7 9" stroke="#373F66" stroke-width="2" stroke-linecap="round" stroke-linejoin="round"/>
</svg>
