<svg width="18" height="16" viewBox="0 0 18 16" fill="none" xmlns="http://www.w3.org/2000/svg">
<path d="M17 1.00785C16.3036 1.53487 15.5324 1.93795 14.7164 2.20158C14.2784 1.66129 13.6962 1.27834 13.0488 1.10454C12.4013 0.930729 11.7196 0.974449 11.0961 1.22978C10.4725 1.48511 9.93705 1.93974 9.56217 2.53217C9.18729 3.1246 8.99105 3.82626 9 4.54224V5.32246C7.72192 5.35801 6.45547 5.05392 5.31346 4.43726C4.17145 3.8206 3.18932 2.91052 2.45455 1.78806C2.45455 1.78806 -0.454545 8.81003 6.09091 11.9309C4.59311 13.0216 2.80884 13.5685 1 13.4913C7.54545 17.3924 15.5455 13.4913 15.5455 4.51883C15.5448 4.3015 15.5253 4.08471 15.4873 3.87125C16.2295 3.08595 16.7533 2.09447 17 1.00785Z" fill="white" stroke="#4AC0B1" stroke-width="1.5" stroke-linecap="round" stroke-linejoin="round"/>
</svg>
