<svg width="46" height="24" viewBox="0 0 46 24" fill="none" xmlns="http://www.w3.org/2000/svg">
<path d="M2 10.5C1.17157 10.5 0.5 11.1716 0.5 12C0.5 12.8284 1.17157 13.5 2 13.5L2 10.5ZM42 13.5C42.8284 13.5 43.5 12.8284 43.5 12C43.5 11.1716 42.8284 10.5 42 10.5L42 13.5ZM2 13.5L42 13.5L42 10.5L2 10.5L2 13.5Z" fill="white"/>
<path d="M35.0607 0.93934C34.4749 0.353553 33.5251 0.353553 32.9393 0.93934C32.3536 1.52513 32.3536 2.47487 32.9393 3.06066L35.0607 0.93934ZM44 12L45.0607 13.0607C45.6464 12.4749 45.6464 11.5251 45.0607 10.9393L44 12ZM32.9393 20.9393C32.3536 21.5251 32.3536 22.4749 32.9393 23.0607C33.5251 23.6464 34.4749 23.6464 35.0607 23.0607L32.9393 20.9393ZM32.9393 3.06066L42.9393 13.0607L45.0607 10.9393L35.0607 0.93934L32.9393 3.06066ZM42.9393 10.9393L32.9393 20.9393L35.0607 23.0607L45.0607 13.0607L42.9393 10.9393Z" fill="white"/>
</svg>
